<svg width="124" height="40" viewBox="0 0 124 40" fill="none" xmlns="http://www.w3.org/2000/svg">
<path d="M50.9883 27.8736H47.3873L45.9558 24.1471H39.4024L38.0493 27.8736H34.5377L40.9233 11.468H44.4237L50.9883 27.8736ZM44.8934 21.383L42.6344 15.2952L40.4201 21.383H44.8934Z" fill="white"/>
<path d="M55.7411 27.8736H52.5987V15.9891H55.5175V17.6789C56.017 16.8806 56.4643 16.3546 56.8595 16.101C57.2621 15.8473 57.7168 15.7205 58.2238 15.7205C58.9395 15.7205 59.6292 15.9182 60.2927 16.3136L59.3198 19.0553C58.7904 18.7121 58.2984 18.5405 57.8436 18.5405C57.4037 18.5405 57.0309 18.6636 56.7253 18.9098C56.4196 19.1486 56.1773 19.585 55.9984 20.2191C55.8269 20.8533 55.7411 22.1813 55.7411 24.203V27.8736Z" fill="white"/>
<path d="M67.1033 15.9891V18.4958H64.9561V23.2854C64.9561 24.2553 64.9748 24.8223 65.012 24.9864C65.0568 25.1431 65.15 25.2736 65.2916 25.3781C65.4407 25.4825 65.6197 25.5347 65.8284 25.5347C66.1192 25.5347 66.5404 25.434 67.0921 25.2326L67.3605 27.6722C66.6299 27.9855 65.8023 28.1422 64.8778 28.1422C64.3112 28.1422 63.8005 28.0489 63.3457 27.8624C62.891 27.6684 62.5555 27.4222 62.3393 27.1238C62.1305 26.8179 61.9851 26.4076 61.9031 25.8928C61.836 25.5273 61.8025 24.7887 61.8025 23.6771V18.4958H60.3598V15.9891H61.8025V13.6278L64.9561 11.7925V15.9891H67.1033Z" fill="white"/>
<path d="M69.284 14.3776V11.468H72.4265V14.3776H69.284ZM69.284 27.8736V15.9891H72.4265V27.8736H69.284Z" fill="white"/>
<path d="M86.1707 21.8418L89.3803 22.8602C88.8883 24.6507 88.0682 25.9824 86.92 26.8552C85.7793 27.7207 84.3292 28.1534 82.5697 28.1534C80.3927 28.1534 78.6034 27.411 77.2018 25.9264C75.8001 24.4343 75.0993 22.3976 75.0993 19.8163C75.0993 17.0857 75.8039 14.967 77.213 13.4599C78.622 11.9455 80.4747 11.1882 82.771 11.1882C84.7766 11.1882 86.4056 11.7813 87.6581 12.9676C88.4037 13.6688 88.9628 14.676 89.3356 15.9891L86.0589 16.7724C85.8651 15.9219 85.4587 15.2505 84.8399 14.7581C84.2286 14.2657 83.483 14.0195 82.6033 14.0195C81.388 14.0195 80.4002 14.4559 79.6397 15.3288C78.8867 16.2017 78.5102 17.6154 78.5102 19.5701C78.5102 21.6441 78.883 23.1213 79.6285 24.0016C80.3741 24.8819 81.3433 25.3221 82.5362 25.3221C83.4159 25.3221 84.1727 25.0423 84.8064 24.4828C85.4401 23.9233 85.8949 23.0429 86.1707 21.8418Z" fill="#7D55D7"/>
<path d="M91.3933 22.5356L94.6141 22.2223C94.8079 23.3041 95.1993 24.0986 95.7883 24.6059C96.3848 25.1132 97.1862 25.3669 98.1927 25.3669C99.2588 25.3669 100.06 25.1431 100.597 24.6954C101.141 24.2403 101.413 23.7107 101.413 23.1064C101.413 22.7184 101.298 22.3901 101.067 22.1216C100.843 21.8455 100.448 21.6068 99.8814 21.4054C99.4937 21.2711 98.6102 21.0323 97.231 20.6892C95.4565 20.249 94.2115 19.7081 93.4958 19.0665C92.4893 18.1638 91.986 17.0634 91.986 15.7652C91.986 14.9297 92.2209 14.15 92.6906 13.4264C93.1677 12.6952 93.8499 12.1394 94.7371 11.759C95.6318 11.3785 96.7091 11.1882 97.969 11.1882C100.027 11.1882 101.574 11.6396 102.61 12.5423C103.654 13.445 104.202 14.6499 104.254 16.1569L100.944 16.3024C100.802 15.4594 100.496 14.8551 100.027 14.4895C99.5645 14.1165 98.8674 13.93 97.9355 13.93C96.9737 13.93 96.2207 14.1277 95.6765 14.5231C95.3261 14.7767 95.1509 15.1162 95.1509 15.5414C95.1509 15.9294 95.3149 16.2614 95.6429 16.5374C96.0604 16.888 97.0744 17.2536 98.6848 17.6341C100.295 18.0146 101.484 18.41 102.252 18.8203C103.028 19.2232 103.631 19.779 104.064 20.4877C104.504 21.189 104.724 22.0582 104.724 23.0952C104.724 24.0352 104.463 24.9155 103.941 25.7362C103.419 26.5568 102.681 27.1686 101.727 27.5714C100.772 27.9669 99.5832 28.1646 98.1592 28.1646C96.0865 28.1646 94.4948 27.6871 93.3839 26.7321C92.2731 25.7697 91.6095 24.3709 91.3933 22.5356Z" fill="#7D55D7"/>
<path d="M106.67 22.5356L109.89 22.2223C110.084 23.3041 110.476 24.0986 111.065 24.6059C111.661 25.1132 112.463 25.3669 113.469 25.3669C114.535 25.3669 115.337 25.1431 115.873 24.6954C116.418 24.2403 116.69 23.7107 116.69 23.1064C116.69 22.7184 116.574 22.3901 116.343 22.1216C116.119 21.8455 115.724 21.6068 115.158 21.4054C114.77 21.2711 113.887 21.0323 112.507 20.6892C110.733 20.249 109.488 19.7081 108.772 19.0665C107.766 18.1638 107.262 17.0634 107.262 15.7652C107.262 14.9297 107.497 14.15 107.967 13.4264C108.444 12.6952 109.126 12.1394 110.013 11.759C110.908 11.3785 111.985 11.1882 113.245 11.1882C115.303 11.1882 116.85 11.6396 117.886 12.5423C118.93 13.445 119.478 14.6499 119.53 16.1569L116.22 16.3024C116.078 15.4594 115.773 14.8551 115.303 14.4895C114.841 14.1165 114.144 13.93 113.212 13.93C112.25 13.93 111.497 14.1277 110.953 14.5231C110.602 14.7767 110.427 15.1162 110.427 15.5414C110.427 15.9294 110.591 16.2614 110.919 16.5374C111.337 16.888 112.351 17.2536 113.961 17.6341C115.571 18.0146 116.761 18.41 117.529 18.8203C118.304 19.2232 118.908 19.779 119.34 20.4877C119.78 21.189 120 22.0582 120 23.0952C120 24.0352 119.739 24.9155 119.217 25.7362C118.695 26.5568 117.957 27.1686 117.003 27.5714C116.049 27.9669 114.859 28.1646 113.435 28.1646C111.363 28.1646 109.771 27.6871 108.66 26.7321C107.549 25.7697 106.886 24.3709 106.67 22.5356Z" fill="#7D55D7"/>
<path d="M4 4H30.7205L28.2902 32.7507L17.331 36L6.43284 32.7493L4 4ZM25.7454 9.884L8.9751 9.88L9.24612 13.376L22.1292 13.3787L21.8047 17H13.356L13.6614 20.4307H21.5274L21.0617 25.128L17.359 26.2L13.5977 25.12L13.3585 22.3067H10.0376L10.4066 27.4467L17.3602 29.7173L24.1969 27.6773L25.7454 9.884Z" fill="#7D55D7"/>
</svg>
